name analog
datacolumns 19
datarows 18
range 0.0 0.0085
endheader
time	ground_force_vx	ground_force_vy	ground_force_vz	ground_force_px	ground_force_py	ground_force_pz	l_ground_force_vx	l_ground_force_vy	l_ground_force_vz	l_ground_force_px	l_ground_force_py	l_ground_force_pz	ground_torque_x	ground_torque_y	ground_torque_z	l_ground_torque_x	l_ground_torque_y	l_ground_torque_z
0.0	-0.0	-0.0	-0.0	4.269774436950684	8.910141944885254	-372.5560302734375	-8.984472274780273	-39.7078971862793	-343.6623229980469	-0.0	-0.0	-0.0	-0.0	-0.0	-0.0	112661.1875	28744.38671875	-8136.16845703125
0.0005	-0.0	-0.0	-0.0	3.799175262451172	8.685654640197754	-374.2608947753906	-9.073107719421388	-39.22707748413086	-340.32598876953125	-0.0	-0.0	-0.0	-0.0	-0.0	-0.0	111689.75	28237.74609375	-8110.58544921875
0.001	-0.0	-0.0	-0.0	3.669901371002197	8.787131309509277	-376.0263366699219	-8.742786407470703	-39.31538009643555	-338.48370361328125	-0.0	-0.0	-0.0	-0.0	-0.0	-0.0	110427.90625	28323.5078125	-8025.49462890625
0.0015	-0.0	-0.0	-0.0	3.3864188194274902	8.593184471130371	-379.3636779785156	-9.253408432006836	-39.11431884765625	-334.74005126953125	-0.0	-0.0	-0.0	-0.0	-0.0	-0.0	109426.0625	28194.083984375	-8187.412109375
0.002	-0.0	-0.0	-0.0	3.094132900238037	8.718753814697266	-383.0401611328125	-9.366721153259276	-38.76107025146485	-330.3935241699219	-0.0	-0.0	-0.0	-0.0	-0.0	-0.0	108734.359375	27927.875	-8135.20068359375
0.0025	-0.0	-0.0	-0.0	3.864415645599365	8.734779357910156	-386.2825012207031	-9.161574363708496	-38.33161163330078	-328.1545715332031	-0.0	-0.0	-0.0	-0.0	-0.0	-0.0	107359.0625	27790.28515625	-8152.345703125
0.003	-0.0	-0.0	-0.0	3.7304208278656006	8.207832336425781	-389.4924621582031	-9.758186340332031	-38.16706085205078	-324.61541748046875	-0.0	-0.0	-0.0	-0.0	-0.0	-0.0	106480.2578125	27896.6328125	-8147.40576171875
0.0035	-0.0	-0.0	-0.0	3.3733527660369877	8.224163055419922	-395.0945739746094	-9.746079444885254	-37.90600204467773	-322.1395874023437	-0.0	-0.0	-0.0	-0.0	-0.0	-0.0	105332.875	27589.859375	-8288.779296875
0.004	-0.0	-0.0	-0.0	4.014472961425781	8.937155723571777	-397.8717041015625	-10.052621841430664	-37.34804916381836	-318.15728759765625	-0.0	-0.0	-0.0	-0.0	-0.0	-0.0	103816.859375	27521.630859375	-8421.0234375
0.0045000000000000005	-0.0	-0.0	-0.0	4.246011734008789	8.74679946899414	-401.9664001464844	-10.17324924468994	-36.67748641967773	-315.5556030273437	-0.0	-0.0	-0.0	-0.0	-0.0	-0.0	102799.9375	27374.21484375	-8449.193359375
0.005	-0.0	-0.0	-0.0	3.8720314502716064	9.168449401855469	-407.6646118164063	-10.173062324523926	-36.47686004638672	-309.7630920410156	-0.0	-0.0	-0.0	-0.0	-0.0	-0.0	101236.2421875	27248.560546875	-8348.08203125
0.0055	-0.0	-0.0	-0.0	4.4485578536987305	9.353259086608888	-412.65631103515625	-10.367180824279783	-36.07585906982422	-304.55450439453125	-0.0	-0.0	-0.0	-0.0	-0.0	-0.0	99977.53125	27054.16015625	-8546.1416015625
0.006	-0.0	-0.0	-0.0	4.900876045227051	10.030281066894531	-418.1650390625	-10.33822536468506	-35.3405647277832	-299.6661071777344	-0.0	-0.0	-0.0	-0.0	-0.0	-0.0	98336.5234375	26721.224609375	-8482.5625
0.006500000000000001	-0.0	-0.0	-0.0	5.168243885040283	10.101458549499512	-425.346435546875	-10.65719985961914	-34.4336051940918	-295.9868469238281	-0.0	-0.0	-0.0	-0.0	-0.0	-0.0	96672.8203125	26578.525390625	-8516.166015625
0.007	-0.0	-0.0	-0.0	5.864180564880371	10.40456485748291	-427.93560791015625	-10.609682083129885	-33.791751861572266	-289.5401611328125	-0.0	-0.0	-0.0	-0.0	-0.0	-0.0	95264.171875	26339.087890625	-8585.0673828125
0.0075	-0.0	-0.0	-0.0	5.834181308746338	10.61833953857422	-432.7859802246094	-10.260974884033203	-33.373802185058594	-286.2110595703125	-0.0	-0.0	-0.0	-0.0	-0.0	-0.0	93768.7421875	26167.51953125	-8541.2392578125
0.008	-0.0	-0.0	-0.0	6.066314697265625	10.808347702026367	-438.6961669921875	-11.242650985717772	-32.86168670654297	-280.9276428222656	-0.0	-0.0	-0.0	-0.0	-0.0	-0.0	92068.8125	25700.84765625	-8585.302734375
0.0085	-0.0	-0.0	-0.0	5.810440540313721	11.052169799804688	-442.5071105957031	-10.799171447753906	-32.3437385559082	-276.6919250488281	-0.0	-0.0	-0.0	-0.0	-0.0	-0.0	90496.7421875	25526.5703125	-8503.748046875
